<svg xmlns="http://www.w3.org/2000/svg" width="51" height="51" fill="none" viewBox="0 0 51 51">
  <circle cx="25.5" cy="25.5" r="25" fill="#fff"/>
  <path stroke="#303642" stroke-width="2" d="m33.54 29.139-2.828-.323a2.215 2.215 0 0 0-1.825.634l-2.049 2.05a16.751 16.751 0 0 1-7.337-7.337l2.06-2.06a2.216 2.216 0 0 0 .634-1.826l-.323-2.805a2.228 2.228 0 0 0-2.215-1.971H17.73c-1.258 0-2.305 1.047-2.227 2.305.59 9.508 8.194 17.1 17.691 17.69 1.258.079 2.305-.968 2.305-2.226v-1.926a2.207 2.207 0 0 0-1.96-2.204Z"/>
</svg>
