<svg xmlns="http://www.w3.org/2000/svg" width="51" height="51" fill="none" viewBox="0 0 51 51">
  <circle cx="25.5" cy="25.5" r="25" fill="#fff"/>
  <mask id="a" fill="#fff">
    <path d="M34.143 32.929H17.429A1.926 1.926 0 0 1 15.5 31V19.429c0-1.068.861-1.929 1.929-1.929h16.714c1.067 0 1.928.861 1.928 1.929V31a1.926 1.926 0 0 1-1.928 1.929ZM17.429 18.786a.637.637 0 0 0-.643.643V31c0 .36.283.643.643.643h16.714c.36 0 .643-.283.643-.643V19.429a.637.637 0 0 0-.643-.643H17.429Z"/>
  </mask>
  <path fill="#303642" d="M34.143 30.929H17.429v4h16.714v-4Zm-16.714 0c.037 0 .071.034.071.071h-4a3.926 3.926 0 0 0 3.929 3.929v-4ZM17.5 31V19.429h-4V31h4Zm0-11.571a.074.074 0 0 1-.071.071v-4a3.926 3.926 0 0 0-3.929 3.929h4Zm-.071.071h16.714v-4H17.429v4Zm16.714 0a.074.074 0 0 1-.072-.071h4a3.926 3.926 0 0 0-3.928-3.929v4Zm-.072-.071V31h4V19.429h-4Zm0 11.571c0-.037.034-.071.072-.071v4A3.926 3.926 0 0 0 38.07 31h-4ZM17.43 16.786a2.637 2.637 0 0 0-2.643 2.643h4c0 .744-.613 1.357-1.357 1.357v-4Zm-2.643 2.643V31h4V19.429h-4Zm0 11.571a2.637 2.637 0 0 0 2.643 2.643v-4c.744 0 1.357.612 1.357 1.357h-4Zm2.643 2.643h16.714v-4H17.429v4Zm16.714 0A2.637 2.637 0 0 0 36.786 31h-4c0-.745.612-1.357 1.357-1.357v4ZM36.786 31V19.429h-4V31h4Zm0-11.571a2.637 2.637 0 0 0-2.643-2.643v4a1.364 1.364 0 0 1-1.357-1.357h4Zm-2.643-2.643H17.429v4h16.714v-4Z" mask="url(#a)"/>
  <mask id="b" fill="#fff">
    <path d="M25.786 27.734c-.9 0-1.723-.36-2.34-1.015l-6.75-7.175a.648.648 0 0 1 .025-.913.648.648 0 0 1 .913.026l6.75 7.174c.733.785 2.07.785 2.803 0l6.75-7.16a.648.648 0 0 1 .913-.027c.257.245.27.656.026.913l-6.75 7.175a3.171 3.171 0 0 1-2.34 1.015v-.013Z"/>
  </mask>
  <path fill="#303642" d="M25.786 27.734h2v-2h-2v2Zm-2.34-1.015-1.457 1.37 1.457-1.37Zm-6.75-7.175 1.456-1.37-.006-.007-1.45 1.377Zm.938-.887 1.457-1.37-.007-.007-1.45 1.377Zm6.75 7.174 1.462-1.365-.005-.005-1.457 1.37Zm2.803 0-1.455-1.371-.006.006 1.461 1.365Zm6.75-7.16-1.45-1.378-.005.005 1.455 1.372Zm.939.886-1.45-1.377-.007.007 1.457 1.37Zm-6.75 7.175 1.456 1.37-1.456-1.37Zm-2.34 1.015h-2v2h2v-2Zm0-2.013c-.342 0-.64-.127-.884-.386l-2.913 2.741a5.171 5.171 0 0 0 3.797 1.645v-4Zm-.884-.386-6.75-7.174-2.913 2.74 6.75 7.175 2.913-2.74Zm-6.756-7.181a1.352 1.352 0 0 1-.047 1.914l-2.755-2.9a2.648 2.648 0 0 0-.098 3.74l2.9-2.754Zm-.047 1.914a1.352 1.352 0 0 1-1.915-.046l2.9-2.755a2.648 2.648 0 0 0-3.74-.099l2.755 2.9Zm-1.921-.053 6.75 7.174 2.913-2.741-6.75-7.174-2.913 2.74Zm6.745 7.169c1.523 1.63 4.202 1.63 5.726 0l-2.923-2.731a.185.185 0 0 1 .06-.045c.01-.003.008-.001 0-.001-.009 0-.01-.002-.001.001.01.005.035.018.06.045l-2.922 2.731Zm5.72.006 6.75-7.161-2.911-2.744-6.75 7.162 2.91 2.743Zm6.744-7.155a1.352 1.352 0 0 1-1.915.046l2.755-2.9a2.648 2.648 0 0 0-3.74.099l2.9 2.755Zm-1.915.046a1.352 1.352 0 0 1-.046-1.914l2.9 2.755a2.648 2.648 0 0 0-.099-3.74l-2.755 2.9Zm-.053-1.907-6.75 7.174 2.913 2.741 6.75-7.174-2.913-2.741Zm-6.75 7.174c-.244.26-.542.386-.883.386v4a5.17 5.17 0 0 0 3.796-1.645l-2.913-2.741Zm1.117 2.386v-.013h-4v.013h4Z" mask="url(#b)"/>
</svg>
