<svg xmlns="http://www.w3.org/2000/svg" width="32" height="31" fill="none" viewBox="0 0 32 31">
  <path stroke="url(#a)" stroke-width="3" d="M8.73 7.75H6.386a4.275 4.275 0 0 0-3.142 1.398A4.762 4.762 0 0 0 2 12.375v12.5a4.76 4.76 0 0 0 1.243 3.227A4.276 4.276 0 0 0 6.385 29.5h19.23c2.532 0 4.385-2.187 4.385-4.625v-12.5a4.76 4.76 0 0 0-1.243-3.227 4.276 4.276 0 0 0-3.142-1.398H23.27V6.125c0-2.427-1.863-4.625-4.384-4.625h-5.77c-2.52 0-4.384 2.198-4.384 4.625V7.75Zm9.616 0h-4.692V6.583h4.692V7.75ZM15.04 14h-.348A3.944 3.944 0 0 1 16 13.777c.443 0 .884.075 1.308.223h-2.27Zm-2.082 1.152c.181-.196.376-.372.582-.529v1.46h-1.252a4.8 4.8 0 0 1 .67-.93Zm0 6.946a4.8 4.8 0 0 1-.67-.931h1.252v1.46a4.493 4.493 0 0 1-.582-.53ZM16 23.473c-.443 0-.884-.075-1.308-.223h2.618a3.944 3.944 0 0 1-1.308.223H16Zm3.044-1.375a4.508 4.508 0 0 1-.581.529v-1.46h1.251a4.8 4.8 0 0 1-.67.93Zm0-6.946a4.8 4.8 0 0 1 .67.931h-1.252v-1.46c.206.157.4.333.582.53Z"/>
  <defs>
    <linearGradient id="a" x1="16" x2="16" y1="3" y2="28" gradientUnits="userSpaceOnUse">
      <stop offset=".605" stop-color="#303642"/>
      <stop offset="1" stop-color="#8EC15B"/>
    </linearGradient>
  </defs>
</svg>
