<svg xmlns="http://www.w3.org/2000/svg" width="27" height="36" fill="none" viewBox="0 0 27 36">
  <mask id="b" width="26" height="36" x=".5" y="0" fill="#000" maskUnits="userSpaceOnUse">
    <path fill="#fff" d="M.5 0h26v36H.5z"/>
    <path d="M9.75 13.632a4.17 4.17 0 0 1 1.113-2.804A3.691 3.691 0 0 1 13.5 9.645c.99.014 1.937.439 2.637 1.183.7.745 1.1 1.75 1.113 2.804a4.17 4.17 0 0 1-1.113 2.804 3.691 3.691 0 0 1-2.637 1.182 3.691 3.691 0 0 1-2.637-1.182 4.17 4.17 0 0 1-1.112-2.804Zm3.75 11.96 5 1.328v-4.093a9 9 0 0 1-5 1.436 9 9 0 0 1-5-1.436v4.093m5-21.261a6.848 6.848 0 0 0-2.874.574A7.217 7.217 0 0 0 8.2 7.97a7.72 7.72 0 0 0-1.654 2.587A8.109 8.109 0 0 0 6 13.631a8.106 8.106 0 0 0 .554 3.052c.378.967.938 1.84 1.646 2.569a7.226 7.226 0 0 0 2.42 1.76 6.853 6.853 0 0 0 2.879.592 6.853 6.853 0 0 0 2.879-.592 7.226 7.226 0 0 0 2.42-1.76 7.72 7.72 0 0 0 1.646-2.569A8.107 8.107 0 0 0 21 13.632a8.109 8.109 0 0 0-.546-3.074A7.72 7.72 0 0 0 18.8 7.971a7.218 7.218 0 0 0-2.425-1.738 6.848 6.848 0 0 0-2.874-.574Zm9.999 7.973a11.27 11.27 0 0 1-.713 3.72A10.596 10.596 0 0 1 21 20.649v10.259l-7.5-2.659-7.499 2.658V20.648c-1.618-1.931-2.508-4.43-2.5-7.016-.022-1.395.225-2.78.726-4.068a10.259 10.259 0 0 1 2.186-3.427A9.661 9.661 0 0 1 9.651 3.79 9.162 9.162 0 0 1 13.5 3c1.32-.02 2.63.248 3.849.788a9.661 9.661 0 0 1 3.238 2.348 10.26 10.26 0 0 1 2.186 3.427c.5 1.289.748 2.673.726 4.068Z"/>
  </mask>
  <path fill="url(#a)" d="m9.75 13.632-3-.037v.074l3-.037Zm3.75-3.987.042-3h-.084l.042 3Zm3.75 3.987 3 .037v-.074l-3 .037Zm-3.75 3.986-.042 3h.084l-.042-3Zm5 9.302-.771 2.9 3.77 1.002V26.92h-3Zm0-4.093h3v-5.483l-4.618 2.957 1.617 2.527Zm-5 1.436.047-3h-.094l.047 3Zm-5-1.436 1.618-2.526-4.617-2.957v5.483h3Zm5-17.168-.058 3h.116l-.058-3ZM8.2 7.97l2.152 2.091.03-.03.028-.031L8.2 7.97Zm-2.199 5.66 3 .038v-.089l-3 .052Zm2.2 5.622 2.223-2.014-.035-.04-.037-.037-2.151 2.09Zm5.299 2.352.042-3h-.084l.042 3Zm5.3-2.352-2.152-2.091-.037.038-.035.039 2.223 2.014Zm2.199-5.621-3-.052v.089l3-.037Zm-2.2-5.661L16.59 10l.029.03.03.031 2.15-2.091Zm4.7 5.66 2.999.063v-.015l-3-.047Zm-.713 3.722-2.809-1.054-.02.054-.018.054 2.847.946ZM21 20.648l-2.34-1.878-.66.823v1.055h3Zm0 10.259-1.002 2.828L24 35.153v-4.246h-3Zm-7.5-2.658 1.002-2.827-1.002-.356-1.002.356 1.002 2.827Zm-7.499 2.658h-3v4.246l4.002-1.418-1.002-2.828Zm0-10.259h3v-1.09l-.7-.836-2.3 1.926Zm-2.5-7.016 3 .01v-.058l-3 .047Zm2.912-7.495 2.155 2.088.034-.035.032-.036-2.22-2.017ZM13.5 3.001l-.045 3h.09L13.5 3Zm7.087 3.136-2.221 2.017.032.036.034.035 2.155-2.088ZM12.75 13.67a1.18 1.18 0 0 1 .298-.786l-4.37-4.11a7.17 7.17 0 0 0-1.927 4.822l6 .074Zm.298-.786a.695.695 0 0 1 .494-.238l-.084-6a6.691 6.691 0 0 0-4.78 2.128l4.37 4.11Zm.41-.238c.149.002.33.065.494.239l4.37-4.111a6.691 6.691 0 0 0-4.78-2.127l-.084 5.999Zm.494.239c.169.18.294.458.298.785l6-.074a7.17 7.17 0 0 0-1.928-4.822l-4.37 4.11Zm.298.711c-.004.327-.13.606-.298.785l4.37 4.11a7.17 7.17 0 0 0 1.927-4.821l-6-.074Zm-.298.785a.694.694 0 0 1-.494.239l.084 6a6.69 6.69 0 0 0 4.78-2.128l-4.37-4.11Zm-.41.239a.694.694 0 0 1-.494-.239l-4.37 4.11a6.69 6.69 0 0 0 4.78 2.128l.084-6Zm-.494-.239a1.172 1.172 0 0 1-.298-.785l-6 .074a7.17 7.17 0 0 0 1.928 4.822l4.37-4.11Zm-.319 14.11 5 1.33 1.541-5.799-5-1.329-1.54 5.799Zm8.77-1.57v-4.093h-6v4.093h6Zm-4.617-6.619a6.002 6.002 0 0 1-3.335.962l-.094 6a12 12 0 0 0 6.664-1.909l-3.235-5.053Zm-3.429.962a6.002 6.002 0 0 1-3.335-.962l-3.235 5.053a12 12 0 0 0 6.664 1.908l-.094-5.999Zm-7.952 1.564v4.093h6v-4.093h-6ZM13.558 2.66a9.848 9.848 0 0 0-4.132.824l2.4 5.5a3.849 3.849 0 0 1 1.616-.325l.116-5.999Zm-4.132.824A10.217 10.217 0 0 0 5.992 5.94L10.41 10a4.218 4.218 0 0 1 1.415-1.019l-2.4-5.5ZM6.05 5.88a10.72 10.72 0 0 0-2.3 3.592l5.593 2.173a4.719 4.719 0 0 1 1.009-1.583L6.05 5.88Zm-2.3 3.592a11.108 11.108 0 0 0-.749 4.212l6-.104a5.108 5.108 0 0 1 .342-1.935L3.751 9.472Zm-.749 4.123c-.018 1.43.24 2.852.76 4.182l5.587-2.186a5.107 5.107 0 0 1-.347-1.922l-6-.075Zm.76 4.182a10.718 10.718 0 0 0 2.288 3.567l4.303-4.182a4.72 4.72 0 0 1-1.004-1.571l-5.587 2.186Zm2.216 3.49c.96 1.06 2.124 1.91 3.427 2.488l2.434-5.484a4.227 4.227 0 0 1-1.414-1.032l-4.447 4.028Zm3.427 2.488a9.851 9.851 0 0 0 4.138.85l-.084-6c-.55.008-1.1-.104-1.62-.334l-2.434 5.484Zm4.054.85a9.85 9.85 0 0 0 4.138-.85l-2.434-5.484a3.85 3.85 0 0 1-1.62.334l-.084 6Zm4.138-.85a10.224 10.224 0 0 0 3.427-2.488l-4.447-4.028a4.238 4.238 0 0 1-1.414 1.032l2.434 5.484Zm3.355-2.411a10.718 10.718 0 0 0 2.288-3.567l-5.587-2.186a4.72 4.72 0 0 1-1.004 1.571l4.303 4.182Zm2.288-3.567c.52-1.33.777-2.752.76-4.183l-6 .075a5.107 5.107 0 0 1-.347 1.922l5.587 2.186Zm.76-4.093a11.106 11.106 0 0 0-.75-4.212l-5.592 2.173c.236.608.354 1.267.342 1.935l6 .104Zm-.75-4.212A10.72 10.72 0 0 0 20.95 5.88l-4.302 4.182a4.73 4.73 0 0 1 1.009 1.583l5.592-2.173Zm-2.24-3.53a10.217 10.217 0 0 0-3.435-2.46l-2.4 5.5c.52.227 1.004.57 1.416 1.019l4.418-4.06Zm-3.435-2.46a9.848 9.848 0 0 0-4.132-.823l.116 6a3.849 3.849 0 0 1 1.617.323l2.4-5.5ZM20.5 13.57a8.27 8.27 0 0 1-.522 2.73l5.618 2.107c.565-1.505.87-3.1.903-4.712L20.5 13.57Zm-.56 2.838a7.594 7.594 0 0 1-1.28 2.363l4.68 3.756a13.596 13.596 0 0 0 2.294-4.228l-5.694-1.89ZM18 20.648v10.259h6V20.648h-6Zm4.002 7.431-7.499-2.657-2.004 5.655 7.499 2.658L22 28.079Zm-9.503-2.657-7.5 2.657 2.005 5.656 7.5-2.658-2.005-5.655ZM9 30.907V20.648H3v10.259h6Zm-.7-12.185c-1.15-1.374-1.806-3.182-1.8-5.08l-6-.02c-.01 3.274 1.115 6.463 3.2 8.952l4.6-3.852Zm-1.8-5.138a7.773 7.773 0 0 1 .523-2.934L1.43 8.477A13.773 13.773 0 0 0 .5 13.68l6-.095Zm.523-2.934a7.26 7.26 0 0 1 1.544-2.425L4.259 4.049a13.259 13.259 0 0 0-2.828 4.428l5.593 2.173Zm1.61-2.496a6.66 6.66 0 0 1 2.231-1.622L8.437 1.045A12.66 12.66 0 0 0 4.193 4.12l4.441 4.034Zm2.231-1.622a6.162 6.162 0 0 1 2.59-.531l.09-6a12.161 12.161 0 0 0-5.108 1.044l2.428 5.487Zm2.68-.531a6.162 6.162 0 0 1 2.59.531l2.428-5.487A12.161 12.161 0 0 0 13.455.001l.09 6Zm2.59.531a6.661 6.661 0 0 1 2.23 1.622l4.443-4.034a12.661 12.661 0 0 0-4.245-3.075l-2.428 5.487Zm2.297 1.693a7.257 7.257 0 0 1 1.544 2.425l5.593-2.173a13.26 13.26 0 0 0-2.828-4.428l-4.309 4.176Zm1.544 2.425a7.76 7.76 0 0 1 .523 2.934l6 .095a13.773 13.773 0 0 0-.93-5.202l-5.593 2.173Z" mask="url(#b)"/>
  <defs>
    <linearGradient id="a" x1="13.5" x2="13.5" y1="3" y2="30.907" gradientUnits="userSpaceOnUse">
      <stop offset=".65" stop-color="#303642"/>
      <stop offset="1" stop-color="#8EC15B"/>
    </linearGradient>
  </defs>
</svg>
