<svg xmlns="http://www.w3.org/2000/svg" width="32" height="31" fill="none" viewBox="0 0 32 31">
  <path stroke="url(#a)" stroke-width="3" d="M27.553 1.5h-7.625c-.582 0-1.138.197-1.561.417a3.89 3.89 0 0 0-1.237.993L7.684 14.764l-.002.003a2.868 2.868 0 0 0-.603 1.778c0 .617.192 1.26.603 1.777l.002.003 8.177 10.26.002.003c.42.526 1.071.912 1.844.912.773 0 1.424-.386 1.845-.912l.002-.002L29 16.73c.335-.42.573-.947.727-1.413a5.142 5.142 0 0 0 .273-1.56V4.192a2.866 2.866 0 0 0-.607-1.776c-.418-.525-1.068-.913-1.84-.916Zm-4.767 9.561h-.008a.13.13 0 0 1-.029-.012l-.692 1.33.692-1.33a.453.453 0 0 1-.137-.123l-1.173.934 1.173-.934a1.006 1.006 0 0 1-.161-.311 1.43 1.43 0 0 1-.07-.445c0-.159.025-.31.07-.445a.969.969 0 0 1 .162-.31.45.45 0 0 1 .136-.123l-.691-1.331.691 1.331a.134.134 0 0 1 .03-.012.034.034 0 0 1 .008 0h.008a.137.137 0 0 1 .029.012c.028.015.078.05.137.122.123.155.23.424.23.757s-.107.601-.23.756a.45.45 0 0 1-.137.122.135.135 0 0 1-.03.011l-.008.001Z"/>
  <path stroke="url(#b)" stroke-width="3" d="M17.61 3.935 19.55 1.5h-4.7c-.583 0-1.139.197-1.562.417a3.89 3.89 0 0 0-1.237.993L2.605 14.764l-.002.003A2.868 2.868 0 0 0 2 16.545c0 .617.192 1.26.603 1.777l.002.003 8.176 10.26.002.003c.42.526 1.072.912 1.845.912.773 0 1.424-.386 1.845-.912l.002-.002.597-.75.744-.934-.744-.935-7.51-9.423L17.61 3.934Z"/>
  <defs>
    <linearGradient id="a" x1="18.54" x2="18.54" y1="3" y2="28" gradientUnits="userSpaceOnUse">
      <stop offset=".585" stop-color="#303642"/>
      <stop offset="1" stop-color="#8EC15B"/>
    </linearGradient>
    <linearGradient id="b" x1="9.968" x2="9.968" y1="3" y2="28" gradientUnits="userSpaceOnUse">
      <stop offset=".585" stop-color="#303642"/>
      <stop offset="1" stop-color="#8EC15B"/>
    </linearGradient>
  </defs>
</svg>
