<svg xmlns="http://www.w3.org/2000/svg" width="32" height="31" fill="none" viewBox="0 0 32 31">
  <path stroke="url(#a)" stroke-width="3" d="M28.927 21.827 20.861 9.331V5.967c.92-.268 1.681-1.083 1.681-2.186 0-1.359-1.155-2.281-2.34-2.281h-8.404c-1.185 0-2.34.922-2.34 2.281 0 1.103.76 1.918 1.68 2.186v3.364L3.074 21.827c-1.127 1.746-1.492 3.732-.49 5.379.976 1.6 2.899 2.294 5.014 2.294h16.806c2.115 0 4.038-.693 5.013-2.294 1.003-1.646.638-3.633-.489-5.379Zm-8.564-4.702h-8.726l3.943-6.108.24-.372V6.063h.36v4.582l.24.372 3.943 6.108Z"/>
  <defs>
    <linearGradient id="a" x1="16" x2="16" y1="3" y2="28" gradientUnits="userSpaceOnUse">
      <stop offset=".65" stop-color="#303642"/>
      <stop offset="1" stop-color="#8EC15B"/>
    </linearGradient>
  </defs>
</svg>
