<svg width="101" height="101" viewBox="0 0 101 101" fill="none" xmlns="http://www.w3.org/2000/svg">
  <circle cx="50.8334" cy="50.5" r="50" fill="#D0F9A7" />
  <path d="M67.3474 52.425C65.9384 51.5544 65.102 50.3996 64.9961 49.1789C64.8902 47.9582 65.5222 46.7562 66.7727 45.8C68.9457 44.1424 70.3904 42.1754 70.9708 40.084C71.5512 37.9926 71.2482 35.8456 70.0904 33.8452C68.9326 31.8448 66.958 30.0567 64.3524 28.6492C61.7469 27.2418 58.5962 26.2613 55.1968 25.8C53.7917 25.621 52.3628 25.5206 50.9277 25.5C45.4842 25.5 40.2637 26.817 36.4146 29.1612C32.5654 31.5054 30.403 34.6848 30.403 38C30.423 40.8397 32.03 43.5907 34.9595 45.8C36.17 46.7381 36.7898 47.9088 36.707 49.1008C36.6242 50.2928 35.8442 51.4275 34.508 52.3C31.7628 54.0676 29.8369 56.2472 28.9269 58.6163C28.0169 60.9854 28.1554 63.4591 29.3282 65.785C30.501 68.1108 32.6662 70.2055 35.6026 71.8552C38.5391 73.5048 42.1418 74.6504 46.0428 75.175C47.6464 75.3928 49.2847 75.5018 50.9277 75.5C55.3013 75.4797 59.5711 74.6863 63.2181 73.216C66.8652 71.7457 69.7326 69.6619 71.4717 67.2179C73.2109 64.7738 73.7469 62.0747 73.0148 59.4486C72.2826 56.8225 70.3137 54.3825 67.3474 52.425ZM55.0326 33C55.8445 33 56.6381 33.1466 57.3132 33.4213C57.9883 33.696 58.5144 34.0865 58.8251 34.5433C59.1358 35.0001 59.2171 35.5028 59.0587 35.9877C58.9003 36.4727 58.5093 36.9181 57.9352 37.2678C57.3612 37.6174 56.6297 37.8555 55.8335 37.952C55.0372 38.0484 54.2118 37.9989 53.4617 37.8097C52.7116 37.6205 52.0705 37.3 51.6195 36.8889C51.1684 36.4778 50.9277 35.9944 50.9277 35.5C50.9277 34.837 51.3602 34.2011 52.13 33.7322C52.8998 33.2634 53.9439 33 55.0326 33ZM46.8228 65.5C46.0109 65.5 45.2172 65.3534 44.5422 65.0787C43.8671 64.804 43.341 64.4135 43.0303 63.9567C42.7196 63.4999 42.6383 62.9972 42.7967 62.5123C42.9551 62.0273 43.346 61.5818 43.9201 61.2322C44.4942 60.8826 45.2256 60.6445 46.0219 60.548C46.8182 60.4516 47.6436 60.5011 48.3936 60.6903C49.1437 60.8795 49.7848 61.1999 50.2359 61.6111C50.6869 62.0222 50.9277 62.5055 50.9277 63C50.9277 63.663 50.4952 64.2989 49.7254 64.7678C48.9556 65.2366 47.9115 65.5 46.8228 65.5ZM50.9277 58C50.9277 57.5055 51.1684 57.0222 51.6195 56.6111C52.0705 56.1999 52.7116 55.8795 53.4617 55.6903C54.2118 55.5011 55.0372 55.4516 55.8335 55.548C56.6297 55.6445 57.3612 55.8826 57.9352 56.2322C58.5093 56.5819 58.9003 57.0273 59.0587 57.5123C59.2171 57.9972 59.1358 58.4999 58.8251 58.9567C58.5144 59.4135 57.9883 59.804 57.3132 60.0787C56.6381 60.3534 55.8445 60.5 55.0326 60.5C53.9439 60.5 52.8998 60.2366 52.13 59.7678C51.3602 59.2989 50.9277 58.663 50.9277 58ZM59.1376 68C58.3257 68 57.532 67.8534 56.857 67.5787C56.1819 67.304 55.6558 66.9135 55.3451 66.4567C55.0344 65.9999 54.9531 65.4972 55.1115 65.0123C55.2699 64.5273 55.6608 64.0818 56.2349 63.7322C56.809 63.3826 57.5404 63.1445 58.3367 63.048C59.133 62.9516 59.9584 63.0011 60.7084 63.1903C61.4585 63.3795 62.0996 63.6999 62.5507 64.1111C63.0017 64.5222 63.2425 65.0055 63.2425 65.5C63.2425 66.163 62.81 66.7989 62.0402 67.2678C61.2704 67.7366 60.2262 68 59.1376 68Z" fill="#303642" />
</svg>