<svg width="101" height="100" viewBox="0 0 101 100" fill="none" xmlns="http://www.w3.org/2000/svg">
  <circle cx="50.5" cy="50" r="50" fill="#D0F9A7" />
  <path d="M42.757 25.0005C34.898 24.9285 30.2528 32.0923 29.5936 38.9565C28.1407 55.5429 26.9804 70.3103 34.0832 74.911C36.3225 76.3613 48.8145 59.6566 57.6246 55.9906C58.7061 45.8737 58.6488 40.869 57.9946 31.0558C57.9946 31.0558 57.6524 28.0727 56.1405 27.5744C53.0193 26.5459 47.6179 24.9791 42.757 25.0005ZM71.0129 26.637C67.8133 26.6225 64.067 27.2019 60.9557 28.1444C60.2505 28.3581 59.8319 30.5726 59.91 31.1631C60.5216 40.5589 60.5958 45.052 59.6574 54.883C77.1613 43.8942 78.683 36.411 78.4849 33.183C78.1721 28.0811 74.9895 26.6551 71.0129 26.637ZM56.5223 59.3029C52.3718 61.6228 48.0907 65.79 44.5343 69.5439C46.6525 70.4873 50.511 70.5972 52.3936 69.0049C54.3213 66.4918 56.028 63.0715 56.5223 59.3029Z" fill="#303642" />
  <path d="M51.1522 36C50.4855 37 51.6 39 54 41C57 43.5 55.1521 43.5 58.1521 45.5" stroke="#D0F9A7" stroke-width="0.5" />
  <path d="M60.5 46C61.5 45 63.013 45.0496 64.8152 42.4977C67.068 39.3079 67.2154 41.1499 68.9698 37.9999" stroke="#D0F9A7" stroke-width="0.5" />
  <path d="M63.5 44C64.0946 42.9981 65.0456 43.099 66.0926 40.5176C67.4015 37.291 67.5544 39.2018 68.5518 36" stroke="#D0F9A7" stroke-width="0.5" />
  <path d="M50.6905 46C50.0239 47 51.1383 49 53.5383 51C56.5383 53.5 54.6904 53.5 57.6904 55.5" stroke="#D0F9A7" stroke-width="0.5" />
  <path d="M53.9974 45.0389C53.4806 45.3925 53.4082 46.6001 53.8404 48.0703C54.3807 49.9082 53.8322 50.4071 54.5 52" stroke="#D0F9A7" stroke-width="0.5" />
  <path d="M49.9974 46.0389C49.4806 46.3925 49.4082 47.6001 49.8404 49.0703C50.3807 50.9082 49.8322 51.4071 50.5 53" stroke="#D0F9A7" stroke-width="0.5" />
</svg>