<svg width="101" height="100" viewBox="0 0 101 100" fill="none" xmlns="http://www.w3.org/2000/svg">
  <circle cx="50.1667" cy="50" r="50" fill="#D0F9A7" />
  <path d="M42.9854 59.0389C42.4686 59.3925 42.3961 60.6001 42.8284 62.0703C43.3687 63.9082 42.8202 64.4071 43.488 66" stroke="white" stroke-width="0.5" />
  <path d="M50.1677 25C50.5947 25 51.0042 25.1904 51.3061 25.5293C51.608 25.8682 51.7777 26.3278 51.7777 26.8071V45.7565L53.3876 47.0468V38.445C53.3876 35.0114 55.8669 32.2285 58.9258 32.2285C60.6131 32.2285 62.2198 33.2043 63.5721 34.3681C64.9599 35.568 66.2994 37.1619 67.4875 38.81C69.8574 42.0917 71.8247 45.8433 72.575 47.7733C73.1417 49.2371 73.8404 51.9658 74.3652 55.0415C74.8965 58.1389 75.2765 61.7532 75.138 65.0132C75.0092 68.1467 74.391 71.4827 72.443 73.4344C70.2856 75.6029 67.2203 75.4439 63.6172 73.4199L57.8375 70.1779C56.5004 69.4275 55.3759 68.274 54.5899 66.8467C53.804 65.4193 53.3877 63.7745 53.3876 62.0965V51.4887L50.1677 48.9045L46.9478 51.4887V47.4589C46.6258 47.4589 46.2974 47.5673 46.0141 47.795L37.9643 54.25C37.7848 54.3842 37.6311 54.5575 37.5123 54.7597C37.3936 54.9618 37.3123 55.1887 37.2732 55.4269C37.2341 55.665 37.2381 55.9095 37.2849 56.1459C37.3316 56.3823 37.4202 56.6057 37.5454 56.8029C37.6706 57.0001 37.8298 57.167 38.0135 57.2938C38.1973 57.4206 38.4019 57.5046 38.6152 57.5409C38.8285 57.5772 39.0461 57.565 39.2551 57.5051C39.4641 57.4451 39.6602 57.3387 39.8319 57.192L46.9478 51.4887V62.0965C46.9478 63.7745 46.5314 65.4193 45.7455 66.8467C44.9595 68.274 43.835 69.4275 42.4979 70.1779L36.7182 73.4199C33.1119 75.4439 30.053 75.5993 27.8925 73.4344C25.9444 71.4827 25.323 68.1467 25.1942 65.0132C25.059 61.7532 25.4389 58.1389 25.967 55.0415C26.495 51.9622 27.1905 49.2371 27.7637 47.7697C28.5107 45.8433 30.4781 42.0917 32.8479 38.81C34.0393 37.1619 35.3755 35.568 36.7633 34.3681C38.1156 33.2043 39.7224 32.2285 41.4096 32.2285C44.4685 32.2285 46.9478 35.0114 46.9478 38.445V47.0468L48.5578 45.7565V26.8071C48.5578 26.3278 48.7274 25.8682 49.0293 25.5293C49.3312 25.1904 49.7407 25 50.1677 25ZM60.5036 57.192C60.6752 57.3387 60.8713 57.4451 61.0803 57.5051C61.2893 57.565 61.507 57.5772 61.7202 57.5409C61.9335 57.5046 62.1381 57.4206 62.3219 57.2938C62.5057 57.167 62.6649 57.0001 62.7901 56.8029C62.9152 56.6057 63.0038 56.3823 63.0506 56.1459C63.0973 55.9095 63.1013 55.665 63.0622 55.4269C63.0231 55.1887 62.9418 54.9618 62.8231 54.7597C62.7044 54.5575 62.5507 54.3842 62.3711 54.25L54.3214 47.795C54.049 47.5762 53.7225 47.4587 53.3876 47.4589V51.4887L60.5036 57.1956V57.192Z" fill="#303642" />
  <path d="M37.1698 62.9989C38.1587 63.6821 40.1768 62.6008 42.2163 60.2343C44.7656 57.276 44.735 59.1237 46.7843 56.1572" stroke="white" stroke-width="0.5" />
  <path d="M43.6667 64.9999C44.6555 65.6831 42.1767 64.6009 44.2162 62.2343C46.7655 59.2761 44.1172 59.9665 46.1666 57" stroke="white" stroke-width="0.5" />
  <path d="M37.1698 46.9989C38.1587 47.6821 40.1768 46.6008 42.2163 44.2343C44.7656 41.276 44.735 43.1237 46.7843 40.1572" stroke="white" stroke-width="0.5" />
  <path d="M43.6667 48.9999C44.6555 49.6831 42.1767 48.6009 44.2162 46.2343C46.7655 43.2761 44.1172 43.9665 46.1666 41" stroke="white" stroke-width="0.5" />
  <path d="M60.1667 64.4999C61.1555 65.183 55.8092 63.5039 56.6671 60.4999C57.6667 56.9999 55.1671 56.9999 53.6671 55.9999" stroke="white" stroke-width="0.5" />
  <path d="M61.6667 60C59.1664 59.0001 58.702 60 58.1668 59.0001C56.0256 55 56.1669 57.5001 54.667 56.5" stroke="white" stroke-width="0.5" />
  <path d="M59.8076 50.4999C60.7964 51.183 55.4501 49.5039 56.308 46.4999C57.3076 42.9999 54.8079 42.9999 53.308 41.9999" stroke="white" stroke-width="0.5" />
  <path d="M61.3076 46C58.8073 45.0001 58.3429 46 57.8076 45.0001C55.6665 41 55.8078 43.5001 54.3079 42.5" stroke="white" stroke-width="0.5" />
</svg>