<svg width="100" height="100" viewBox="0 0 100 100" fill="none" xmlns="http://www.w3.org/2000/svg">
  <circle cx="50" cy="50" r="50" fill="#D0F9A7" />
  <path d="M34.1371 60.216C18.9964 53.1384 24.971 29.2471 35.482 25.3005C39.8427 23.6631 44.6522 29.0957 44.623 32.4677C44.609 33.9259 43.9303 35.3485 43.2224 36.8298C42.2942 38.7761 41.3158 40.8228 41.7311 43.1907C42.4628 47.3613 43.2823 54.3988 41.1709 57.7384C39.0595 61.0795 36.937 61.5244 34.1371 60.216ZM64.5174 25.3005C75.0284 29.2471 81.0044 53.1384 65.8623 60.216C63.0625 61.5259 60.9399 61.0795 58.8285 57.7384C56.7171 54.3988 57.5366 47.3613 58.2683 43.1907C58.6836 40.8228 57.7052 38.7746 56.7771 36.8298C56.0691 35.3485 55.3904 33.9259 55.3778 32.4677C55.3472 29.0957 60.1581 23.6631 64.5174 25.3005ZM56.5332 47.9004L56.6307 49.4405H56.6475L56.6516 49.4389C56.5726 49.4516 56.4943 49.4702 56.4175 49.4945C56.1815 49.5686 55.9586 49.6867 55.7583 49.8436C55.3541 50.1618 54.7604 50.8693 54.7604 52.6549V75H51.9731V52.6549C51.9731 49.927 52.9626 48.2572 54.1403 47.3258C54.7469 46.8501 55.4423 46.5317 56.175 46.3944C56.249 46.3814 56.3234 46.3711 56.398 46.3635L56.4203 46.3604H56.4356C56.4356 46.3589 56.4384 46.3589 56.5332 47.9004ZM43.4662 47.9004C43.3715 49.4405 43.3701 49.4405 43.3687 49.4405H43.352L43.3478 49.4389L43.3812 49.4435C43.6906 49.5056 43.984 49.6416 44.2411 49.8421C44.6453 50.1618 45.239 50.8693 45.239 52.6549V75H48.0263V52.6549C48.0263 49.927 47.0368 48.2572 45.8578 47.3258C45.2512 46.85 44.5557 46.5316 43.823 46.3944C43.749 46.3814 43.6746 46.3711 43.6 46.3635L43.5791 46.3604H43.5638C43.5638 46.3589 43.5624 46.3589 43.4662 47.9004Z" fill="#303642" />
  <path d="M34.1905 38C33.5239 39 34.6383 41 37.0383 43C40.0383 45.5 38.1904 45.5 41.1904 47.5" stroke="#D0F9A7" stroke-width="0.5" />
  <path d="M57.6038 50C58.1984 48.9981 59.1493 49.099 60.1964 46.5176C61.5052 43.291 61.6581 45.2018 62.6556 42" stroke="#D0F9A7" stroke-width="0.5" />
  <path d="M61 44.9998C62.0208 44.4383 59.7122 46.1726 61.9245 44.4798C64.6898 42.3637 63.8518 44.0877 66.3361 41.8351" stroke="#D0F9A7" stroke-width="0.5" />
  <path d="M37.8187 38.0389C37.3019 38.3925 37.2294 39.6001 37.6617 41.0703C38.202 42.9082 37.6535 43.4071 38.3213 45" stroke="#D0F9A7" stroke-width="0.5" />
</svg>