<svg width="100" height="100" viewBox="0 0 100 100" fill="none" xmlns="http://www.w3.org/2000/svg">
  <circle cx="50" cy="50" r="50" fill="#D0F9A7" />
  <path d="M32.9572 50C29.8264 45.0502 27.3751 41.2107 25.6032 38.4813C22.9453 34.3873 29.7418 29.0962 32.9572 32.6957C35.1007 35.0954 37.9484 38.6297 41.5 43.2989" fill="#303642" />
  <path d="M32.9572 50C29.8264 45.0502 27.3751 41.2107 25.6032 38.4813C22.9453 34.3873 29.7418 29.0962 32.9572 32.6957C35.1007 35.0954 37.9484 38.6297 41.5 43.2989" stroke="#D0F9A7" stroke-linecap="round" />
  <path d="M36.4051 45.2866C33.9589 42.8184 31.6617 42.2886 29.5136 43.697C26.2915 45.8095 25.3662 53.1731 27.9591 59.6657C30.5521 66.1584 35.5939 74.9999 45.7723 74.9999C55.9507 74.9999 58.3583 66.1043 62.5107 60.726C66.6631 55.3477 68.86 50.1588 64.7899 43.697" fill="#303642" />
  <path d="M36.4051 45.2866C33.9589 42.8184 31.6617 42.2886 29.5136 43.697C26.2915 45.8095 25.3662 53.1731 27.9591 59.6657C30.5521 66.1584 35.5939 74.9999 45.7723 74.9999C55.9507 74.9999 58.3583 66.1043 62.5107 60.726C66.6631 55.3477 68.86 50.1588 64.7899 43.697" stroke="#D0F9A7" stroke-linecap="round" stroke-linejoin="round" />
  <path d="M37.1066 51.9721C36.4043 44.7603 36.9757 40.0644 38.8209 37.8845C41.5886 34.6148 46.7312 33.375 51.5735 33.375C54.4566 33.375 57.0895 34.3825 59.4724 36.3975" fill="#303642" />
  <path d="M37.1066 51.9721C36.4043 44.7603 36.9757 40.0644 38.8209 37.8845C41.5886 34.6148 46.7312 33.375 51.5735 33.375C54.4566 33.375 57.0895 34.3825 59.4724 36.3975" stroke="#D0F9A7" stroke-linecap="round" stroke-linejoin="round" />
  <path d="M74.7626 36.4787C75.6113 38.9006 74.2249 41.1134 69.9558 41.6145C65.6866 42.1156 62.4859 43.8769 60.1774 45.3586C57.8689 46.8402 53.7404 51.3356 52.9255 53.5927C52.1104 55.8497 47.4519 53.7739 46.2008 52.8729C44.9496 51.9717 43.7196 49.9988 46.2008 47.9354C48.6818 45.8721 48.145 45.4603 48.145 43.3678C48.145 41.2754 61.7162 34.3539 69.3593 33.7209C71.0583 33.6396 73.9137 34.0567 74.7626 36.4787Z" fill="#303642" stroke="#D0F9A7" />
  <path d="M48.6807 26.2351V32.4942V26.2351Z" fill="#303642" />
  <path d="M48.6807 26.2351V32.4942" stroke="#D0F9A7" stroke-linecap="round" />
  <path d="M39.9774 29.8375L41.4132 25L39.9774 29.8375Z" fill="#303642" />
  <path d="M39.9774 29.8375L41.4132 25" stroke="#D0F9A7" stroke-linecap="round" />
  <path d="M66.9528 34.2244C66.4856 35.538 66.4856 36.7697 66.9528 37.9193C67.4199 39.069 68.4208 40.3007 69.9555 41.6143" fill="#303642" />
  <path d="M66.9528 34.2244C66.4856 35.538 66.4856 36.7697 66.9528 37.9193C67.4199 39.069 68.4208 40.3007 69.9555 41.6143" stroke="#D0F9A7" stroke-linecap="round" />
</svg>